<?xml version="1.0" encoding="utf-8"?>
<!-- Generator: Adobe Illustrator 21.0.2, SVG Export Plug-In . SVG Version: 6.00 Build 0)  -->
<svg version="1.1" id="Capa_1" xmlns="http://www.w3.org/2000/svg" xmlns:xlink="http://www.w3.org/1999/xlink" x="0px" y="0px"
	 viewBox="0 0 819.1 358.6" style="enable-background:new 0 0 819.1 358.6;" xml:space="preserve">
<style type="text/css">
	.st0{fill:#FFFFFF;}
	.st1{fill:#FFCC4D;}
	.st2{fill:#FF5224;}
	.st3{fill:#FF7B61;}
	.st4{fill:#FFA400;}
	.st5{fill:#FF6100;}
	.st6{fill:#FF4000;}
	.st7{fill:#FF3913;}
	.st8{fill:#FF2400;}
</style>
<g>
	<g>
		<path class="st0" d="M408.6,130.2c0-3.4,1.3-6.3,3.8-8.8s5.4-3.8,8.8-3.8s6.3,1.3,8.8,3.8s3.8,5.4,3.8,8.8c0,3.4-1.3,6.3-3.8,8.8
			s-5.4,3.8-8.8,3.8s-6.3-1.3-8.8-3.8S408.6,133.5,408.6,130.2z M432.1,228.3h-22.6v-77.1h22.6V228.3z"/>
		<path class="st0" d="M453.1,172.1h-11.7v-19.3h5.9c6.1,0,9.2-3.1,9.2-9.2v-10.9h19.3v18.4h15.9v21h-15.9v25.2c0,3.4,0.9,6,2.9,8
			c1.9,2,4.3,2.9,7.2,2.9c0.9,0,1.7,0,2.3-0.1c0.7-0.1,1.3-0.1,1.8-0.3c0.6-0.1,1.1-0.3,1.7-0.5v20.1c-0.9,0.3-1.9,0.6-3,0.8
			c-2.2,0.6-4.9,0.8-7.9,0.8c-8.8,0-15.7-2.4-20.5-7.3c-4.8-4.9-7.2-11.9-7.2-21.2L453.1,172.1L453.1,172.1z"/>
		<path class="st0" d="M541.9,150.3c1,0,1.9,0.1,2.8,0.2c0.8,0.1,1.5,0.2,2.1,0.3c0.7,0.1,1.3,0.2,1.8,0.3v23.5
			c-0.7-0.2-1.5-0.5-2.3-0.8c-0.8-0.2-1.7-0.4-2.7-0.6s-2.1-0.3-3.4-0.3c-4.2,0-7.7,1.4-10.3,4.2s-3.9,6.7-3.9,11.7v39.4h-22.6
			v-77.1h16.8l3.4,8.4c1.3-1.7,3-3.2,4.9-4.5c1.6-1.2,3.5-2.3,5.8-3.3C536.4,150.8,539,150.3,541.9,150.3z"/>
		<path class="st0" d="M552,189.7c0-5.7,1-11,3.1-15.8c2.1-4.9,4.9-9.1,8.5-12.7c3.6-3.6,7.7-6.5,12.5-8.6s9.9-3.1,15.3-3.1
			c5.5,0,10.6,1,15.3,3.1c4.8,2.1,8.9,4.9,12.5,8.6c3.6,3.6,6.4,7.9,8.5,12.7c2.1,4.9,3.1,10.1,3.1,15.8s-1,11-3.1,15.8
			c-2.1,4.9-4.9,9.1-8.5,12.7c-3.6,3.6-7.7,6.5-12.5,8.6s-9.9,3.1-15.3,3.1c-5.5,0-10.6-1-15.3-3.1c-4.8-2.1-8.9-4.9-12.5-8.6
			c-3.6-3.6-6.4-7.9-8.5-12.7S552,195.4,552,189.7z M608.2,189.7c0-5.9-1.6-10.6-4.9-14.1c-3.2-3.5-7.2-5.2-11.9-5.2
			s-8.7,1.7-11.9,5.2s-4.9,8.2-4.9,14.1c0,5.9,1.6,10.6,4.9,14.1c3.2,3.5,7.2,5.2,11.9,5.2s8.7-1.7,11.9-5.2
			C606.6,200.3,608.2,195.6,608.2,189.7z"/>
		<path class="st0" d="M682.8,150.3c4.6,0,8.8,0.8,12.6,2.3s7.1,3.7,9.8,6.5c2.7,2.9,4.9,6.3,6.4,10.3s2.3,8.6,2.3,13.6v45.3h-22.6
			v-41.1c0-5-1.3-8.9-3.9-11.7c-2.6-2.8-6.1-4.2-10.3-4.2s-7.7,1.4-10.3,4.2s-3.9,6.7-3.9,11.7v41.1H640v-77.1h16.8l3.4,7.5
			c1.8-1.6,3.9-3,6.2-4.2c2-1,4.4-2,7.2-2.9C676.4,150.8,679.4,150.3,682.8,150.3z"/>
	</g>
	<g>
		<path class="st1" d="M216,243.6c-29.7,21.8-66.1,34.9-105.6,35.7c0,0,0,0-0.1,0c-6.6-0.8-10.5-8.2-7.1-14.1l11.3-19.6
			c27.9-1.4,53.8-10.3,75.6-24.8C198,229.1,206.7,236.8,216,243.6z"/>
		<path class="st2" d="M169.5,194.1c-10.2,6.5-21.5,11.4-33.6,14.4l21.3-36.9C160.8,179.5,164.9,187,169.5,194.1z"/>
		<path class="st3" d="M190.2,220.7c-21.9,14.5-47.7,23.4-75.6,24.8l21.3-37c12.1-3.1,23.4-8,33.6-14.4
			C175.5,203.7,182.5,212.5,190.2,220.7z"/>
		<path class="st1" d="M321.7,279.3C321.6,279.3,321.6,279.3,321.7,279.3c-39.6-0.7-76-13.8-105.7-35.7c9.3-6.8,17.9-14.5,25.8-22.9
			c21.9,14.5,47.8,23.4,75.6,24.8l11.3,19.6C332.2,271.1,328.3,278.5,321.7,279.3z"/>
		<path class="st4" d="M241.8,220.8c-7.9,8.4-16.5,16.1-25.8,22.9c-9.3-6.8-18-14.5-25.8-22.9c9.4-6.2,18.1-13.4,25.8-21.6
			C223.7,207.3,232.4,214.5,241.8,220.8z"/>
		<path class="st5" d="M216,199.1c-7.7,8.1-16.4,15.4-25.8,21.6c-7.7-8.2-14.6-17.1-20.7-26.6c9.6-6.1,18.3-13.5,25.8-22.1
			C201.1,181.9,208.1,191,216,199.1z"/>
		<path class="st6" d="M195.3,172.1c-7.5,8.6-16.2,16-25.8,22.1c-4.6-7.2-8.7-14.7-12.3-22.5l21.9-37.9
			C182.7,147.4,188.2,160.2,195.3,172.1z"/>
		<path class="st6" d="M274.7,171.7c-3.6,7.8-7.7,15.3-12.3,22.5c-9.6-6.1-18.3-13.5-25.8-22.1c7-11.8,12.5-24.7,16.2-38.3
			L274.7,171.7z"/>
		<path class="st2" d="M296.1,208.6c-12-3.1-23.4-8-33.6-14.5c4.6-7.1,8.7-14.7,12.3-22.5L296.1,208.6z"/>
		<path class="st3" d="M317.4,245.5c-27.8-1.4-53.8-10.3-75.6-24.8c7.6-8.2,14.6-17.1,20.7-26.6c10.2,6.5,21.6,11.4,33.6,14.5
			L317.4,245.5z"/>
		<path class="st5" d="M262.5,194.1c-6.1,9.5-13,18.4-20.7,26.6c-9.4-6.2-18.1-13.5-25.8-21.6c7.9-8.2,14.8-17.3,20.7-27.1
			C244.1,180.6,252.8,188.1,262.5,194.1z"/>
		<path class="st7" d="M236.7,172c-5.9,9.8-12.8,18.9-20.7,27.1c-7.8-8.2-14.8-17.2-20.7-27.1c8.7-9.9,15.7-21.3,20.7-33.7
			C221,150.8,228,162.2,236.7,172z"/>
		<path class="st8" d="M224.1,84c-0.1-0.1-0.2-0.3-0.3-0.4c-3.7-5.7-12.1-5.7-15.7,0c-0.1,0.1-0.2,0.3-0.3,0.5l-28.7,49.7
			c3.6,13.7,9.1,26.5,16.2,38.4c8.7-9.9,15.7-21.3,20.7-33.7c5,12.4,12,23.8,20.7,33.7c7-11.8,12.5-24.7,16.2-38.3L224.1,84z"/>
	</g>
</g>
</svg>
